<svg width="50" height="50" viewBox="0 0 50 50" fill="none" xmlns="http://www.w3.org/2000/svg">
<g clip-path="url(#clip0)">
<path d="M48.827 17.1875H42.9804L41.3554 13.125C39.6854 8.94824 35.7001 6.25 31.2011 6.25H18.7987C14.3007 6.25 10.3143 8.94824 8.64344 13.125L7.01844 17.1875H1.17274C0.410045 17.1875 -0.149525 17.9043 0.0360218 18.6436L0.621959 20.9873C0.751842 21.5088 1.22059 21.875 1.75868 21.875H3.71864C2.40712 23.0205 1.56239 24.6855 1.56239 26.5625V31.25C1.56239 32.8242 2.16395 34.2451 3.12489 35.3447V40.625C3.12489 42.3506 4.5243 43.75 6.24989 43.75H9.37489C11.1005 43.75 12.4999 42.3506 12.4999 40.625V37.5H37.4999V40.625C37.4999 42.3506 38.8993 43.75 40.6249 43.75H43.7499C45.4755 43.75 46.8749 42.3506 46.8749 40.625V35.3447C47.8358 34.2461 48.4374 32.8252 48.4374 31.25V26.5625C48.4374 24.6855 47.5927 23.0205 46.2821 21.875H48.2421C48.7802 21.875 49.2489 21.5088 49.3788 20.9873L49.9647 18.6436C50.1493 17.9043 49.5897 17.1875 48.827 17.1875ZM14.4462 15.4463C15.1581 13.667 16.8817 12.5 18.7987 12.5H31.2011C33.1181 12.5 34.8417 13.667 35.5536 15.4463L37.4999 20.3125H12.4999L14.4462 15.4463ZM9.37489 31.2305C7.49989 31.2305 6.24989 29.9844 6.24989 28.1152C6.24989 26.2461 7.49989 25 9.37489 25C11.2499 25 14.0624 27.8037 14.0624 29.6729C14.0624 31.542 11.2499 31.2305 9.37489 31.2305ZM40.6249 31.2305C38.7499 31.2305 35.9374 31.542 35.9374 29.6729C35.9374 27.8037 38.7499 25 40.6249 25C42.4999 25 43.7499 26.2461 43.7499 28.1152C43.7499 29.9844 42.4999 31.2305 40.6249 31.2305V31.2305Z" fill="#263B87"/>
</g>
<defs>
<clipPath id="clip0">
<rect width="50" height="50" fill="white"/>
</clipPath>
</defs>
</svg>
