<svg width="50" height="50" viewBox="0 0 50 50" fill="none" xmlns="http://www.w3.org/2000/svg">
<g clip-path="url(#clip0)">
<path d="M38.5415 19.7909H9.3741C7.65111 19.7909 6.24902 21.193 6.24902 22.916V24.9993C6.24902 32.4328 10.3554 39.1747 16.9638 42.5935C17.4743 42.856 18.1034 42.6581 18.3681 42.1455C18.6306 41.6351 18.4326 41.006 17.9201 40.7413C12.0075 37.6829 8.33237 31.6515 8.33237 24.9992V22.9159C8.33237 22.3409 8.79908 21.8741 9.3741 21.8741H38.5415C39.1165 21.8741 39.5832 22.3409 39.5832 22.9159V24.9992C39.5832 31.6514 35.9081 37.6828 29.9934 40.7392C29.4809 41.0037 29.283 41.6329 29.5455 42.1434C29.7309 42.5017 30.0955 42.708 30.4725 42.708C30.635 42.708 30.7975 42.6705 30.9496 42.5913C37.5602 39.1745 41.6665 32.4348 41.6665 24.9991V22.9158C41.6665 21.193 40.2644 19.7909 38.5415 19.7909Z" fill="#263B87"/>
<path d="M47.8395 41.2664C47.677 40.8768 47.2978 40.6226 46.877 40.6226H1.04263C0.621815 40.6226 0.242607 40.8768 0.0801032 41.2664C-0.0824006 41.6559 0.00715226 42.1039 0.305109 42.4019L2.64061 44.7394C4.01984 46.1165 5.84899 46.8749 7.79698 46.8749H40.1185C42.0665 46.8749 43.8978 46.1166 45.2791 44.7394L47.6146 42.4019C47.9125 42.1039 48.002 41.6559 47.8395 41.2664ZM43.8041 43.2664C42.8208 44.2498 41.5103 44.7915 40.1207 44.7915H7.79698C6.4074 44.7915 5.09692 44.2498 4.1136 43.2664L3.55528 42.7081H44.3624L43.8041 43.2664Z" fill="#263B87"/>
<path d="M47.9853 24.7098C45.179 22.9055 40.6956 24.864 40.1934 25.091C39.6704 25.3306 39.4371 25.9473 39.6767 26.4723C39.9162 26.9973 40.5309 27.2286 41.058 26.989C42.0622 26.5328 45.2831 25.4515 46.8581 26.4661C47.5686 26.9223 47.9164 27.8078 47.9164 29.1661C47.9164 33.337 39.5037 35.858 36.2557 36.4788L35.5182 36.6246C34.9536 36.7351 34.5869 37.2829 34.6974 37.8476C34.7953 38.3434 35.2307 38.6872 35.7182 38.6872C35.7849 38.6872 35.8515 38.6809 35.9202 38.6664L36.6515 38.5226C37.1973 38.4184 49.9998 35.908 49.9998 29.1661C49.9999 27.0703 49.3208 25.5723 47.9853 24.7098Z" fill="#263B87"/>
<path d="M32.0685 11.0657C33.7623 8.94896 33.7623 5.63433 32.0685 3.51758C31.708 3.06757 31.056 2.99257 30.6039 3.35508C30.1539 3.71554 30.081 4.36965 30.4414 4.81966C31.5144 6.15925 31.5144 8.42395 30.4394 9.76773C28.7435 11.8845 28.7435 15.1991 30.4394 17.3159C30.6456 17.5742 30.9477 17.7076 31.2539 17.7076C31.481 17.7076 31.7122 17.6326 31.9039 17.4784C32.354 17.1179 32.4269 16.4616 32.0665 16.0138C30.9914 14.6741 30.9914 12.4095 32.0685 11.0657Z" fill="#263B87"/>
<path d="M25.8099 11.0657C27.5057 8.94892 27.5057 5.6343 25.8099 3.51755C25.4516 3.06754 24.7953 2.99458 24.3453 3.35504C23.8953 3.7155 23.8223 4.37177 24.1828 4.81963C25.2578 6.15921 25.2578 8.42391 24.1807 9.76769C22.487 11.8844 22.487 15.1991 24.1807 17.3158C24.387 17.5741 24.6891 17.7075 24.9953 17.7075C25.2224 17.7075 25.4516 17.6325 25.6453 17.4783C26.0953 17.1179 26.1683 16.4638 25.8078 16.0137C24.7349 14.6741 24.7349 12.4095 25.8099 11.0657Z" fill="#263B87"/>
<path d="M19.568 11.0678C21.2618 8.95101 21.2618 5.63638 19.568 3.51963C19.2097 3.06962 18.5555 2.99462 18.1034 3.35712C17.6555 3.71543 17.5826 4.3717 17.9409 4.81966C19.0139 6.15924 19.0139 8.42394 17.9389 9.76772C16.243 11.8845 16.243 15.1991 17.9389 17.3158C18.1451 17.5742 18.4472 17.7076 18.7534 17.7076C18.9805 17.7076 19.2118 17.6326 19.4035 17.4805C19.8535 17.12 19.9264 16.4638 19.566 16.0159C18.4909 14.6741 18.4909 12.4115 19.568 11.0678Z" fill="#263B87"/>
</g>
<defs>
<clipPath id="clip0">
<rect width="50" height="50" fill="white"/>
</clipPath>
</defs>
</svg>
