<svg width="50" height="50" viewBox="0 0 50 50" fill="none" xmlns="http://www.w3.org/2000/svg">
<g clip-path="url(#clip0)">
<path d="M40.6251 39.5833H30.2084C29.6334 39.5833 29.1667 39.1167 29.1667 38.5417C29.1667 37.9667 29.6334 37.5 30.2084 37.5H40.6251C42.348 37.5 43.7501 36.0979 43.7501 34.375V32.2917C43.7501 31.7167 44.2168 31.25 44.7918 31.25H46.8563C47.4313 31.25 47.898 30.7833 47.898 30.2083V17.7083C47.898 17.1333 47.4313 16.6667 46.8563 16.6667H44.7918C44.2168 16.6667 43.7501 16.2 43.7501 15.625V13.5417C43.7501 11.8188 42.348 10.4167 40.6251 10.4167H34.3751C33.8001 10.4167 33.3334 9.95001 33.3334 9.37501C33.3334 8.80001 33.8001 8.33334 34.3751 8.33334H40.6251C43.4959 8.33334 45.8334 10.6708 45.8334 13.5417V14.5833H46.8563C48.5793 14.5833 49.9813 15.9854 49.9813 17.7083V30.2083C49.9813 31.9313 48.5793 33.3333 46.8563 33.3333H45.8334V34.375C45.8334 37.2458 43.4959 39.5833 40.6251 39.5833Z" fill="#263B87"/>
<path d="M13.5417 39.5833H5.20833C2.3375 39.5833 0 37.2458 0 34.375V13.5417C0 10.6708 2.3375 8.33334 5.20833 8.33334H19.7917C20.3667 8.33334 20.8333 8.80001 20.8333 9.37501C20.8333 9.95001 20.3667 10.4167 19.7917 10.4167H5.20833C3.48542 10.4167 2.08333 11.8188 2.08333 13.5417V34.375C2.08333 36.0979 3.48542 37.5 5.20833 37.5H13.5417C14.1167 37.5 14.5833 37.9667 14.5833 38.5417C14.5833 39.1167 14.1167 39.5833 13.5417 39.5833Z" fill="#263B87"/>
<path d="M19.3812 43.75C19.2166 43.75 19.0479 43.7104 18.8937 43.6292C18.4458 43.3917 18.2333 42.8646 18.3937 42.3813L22.7562 29.1667H14.5833C14.1958 29.1667 13.8416 28.9521 13.6604 28.6083C13.4812 28.2646 13.5062 27.85 13.727 27.5313L28.1562 6.69792C28.4395 6.28959 28.9791 6.14376 29.4291 6.33542C29.8854 6.53542 30.1375 7.02917 30.0312 7.51459L27.0979 20.8333H35.4166C35.8125 20.8333 36.175 21.0583 36.352 21.4146C36.527 21.7708 36.4833 22.1958 36.2416 22.5104L20.2062 43.3438C20.0041 43.6083 19.6958 43.75 19.3812 43.75ZM16.5729 27.0833H24.1979C24.5333 27.0833 24.8458 27.2438 25.0416 27.5146C25.2375 27.7854 25.2916 28.1333 25.1854 28.4521L22.2895 37.2208L33.3 22.9167H25.802C25.4875 22.9167 25.1875 22.7729 24.9895 22.5271C24.7916 22.2813 24.7166 21.9583 24.7833 21.65L26.8583 12.2313L16.5729 27.0833Z" fill="#263B87"/>
</g>
<defs>
<clipPath id="clip0">
<rect width="50" height="50" fill="white"/>
</clipPath>
</defs>
</svg>
