<svg width="273" height="263" viewBox="0 0 273 263" fill="none" xmlns="http://www.w3.org/2000/svg">
<g clip-path="url(#clip0)">
<path d="M135.967 239.628C145.685 239.628 153.563 232.038 153.563 222.676C153.563 213.315 145.685 205.725 135.967 205.725C126.249 205.725 118.371 213.315 118.371 222.676C118.371 232.038 126.249 239.628 135.967 239.628Z" fill="#263B87"/>
<path d="M270.137 79.5491C235.09 43.3235 187.631 23.3725 136.498 23.372C85.3695 23.3725 37.9108 43.3235 2.86285 79.5491C-1.15217 83.6996 -0.914891 90.2006 3.39338 94.069C7.70219 97.937 14.4499 97.7089 18.4654 93.5579C49.4338 61.548 91.352 43.9194 136.502 43.9188C181.648 43.9194 223.566 61.548 254.535 93.5579C256.635 95.7287 259.483 96.8269 262.338 96.8269C264.942 96.8269 267.552 95.9136 269.607 94.069C273.915 90.2001 274.153 83.6996 270.137 79.5491Z" fill="#263B87"/>
<path d="M230.98 121.975C205.073 96.829 171.519 82.981 136.499 82.982C101.47 82.9825 67.9155 96.8311 42.0168 121.976C37.8685 126.004 37.8946 132.509 42.0754 136.505C46.2563 140.501 53.0082 140.476 57.1565 136.448C79.0205 115.22 107.198 103.529 136.499 103.529C165.792 103.528 193.969 115.219 215.841 136.449C217.926 138.473 220.668 139.486 223.411 139.486C226.126 139.486 228.843 138.492 230.923 136.504C235.103 132.507 235.129 126.002 230.98 121.975Z" fill="#263B87"/>
<path d="M188.301 164.525C174.427 151.283 154.54 143.057 136.4 143.057C136.397 143.057 136.394 143.057 136.392 143.057H135.623C135.62 143.057 135.618 143.057 135.615 143.057C117.474 143.057 97.5856 151.283 83.7122 164.525C79.5287 168.518 79.4973 175.023 83.6424 179.053C85.7277 181.081 88.4727 182.096 91.2181 182.096C93.9305 182.096 96.644 181.105 98.7229 179.121C108.599 169.694 123.08 163.604 135.616 163.604C135.618 163.604 135.62 163.604 135.622 163.604H136.393C136.395 163.604 136.396 163.604 136.398 163.604C148.933 163.604 163.414 169.695 173.29 179.121C177.473 183.114 184.226 183.085 188.371 179.053C192.516 175.023 192.485 168.518 188.301 164.525Z" fill="#263B87"/>
</g>
<defs>
<clipPath id="clip0">
<rect width="273" height="263" fill="white"/>
</clipPath>
</defs>
</svg>
